<svg xmlns="http://www.w3.org/2000/svg" viewBox="0 0 400 400" role="img" aria-labelledby="t">
  <title id="t">Il Tempio del Cielo nei Colori della Bandiera</title>
  <defs>
    <g id="stars">
      <polygon points="5.0000,2.0000 5.6735,4.0729 7.8532,4.0729 6.0898,5.3541 6.7634,7.4271 5.0000,6.1459 3.2366,7.4271 3.9102,5.3541 2.1468,4.0729 4.3265,4.0729"/>
      <polygon points="9.1425,2.5145 9.6195,1.9665 9.2457,1.3435 9.9143,1.6278 10.3913,1.0797 10.3275,1.8035 10.9961,2.0878 10.2881,2.2508 10.2243,2.9745 9.8505,2.3515"/>
      <polygon points="11.0101,4.1414 11.6623,3.8214 11.5596,3.1022 12.0655,3.6237 12.7178,3.3037 12.3781,3.9460 12.8840,4.4675 12.1682,4.3429 11.8286,4.9852 11.7258,4.2660"/>
      <polygon points="11.0385,6.7253 11.7646,6.6992 11.9641,6.0006 12.2133,6.6831 12.9394,6.6571 12.3673,7.1049 12.6164,7.7874 12.0137,7.3817 11.4416,7.8296 11.6412,7.1310"/>
      <polygon points="9.2191,8.3753 9.8990,8.6316 10.3528,8.0643 10.3191,8.7901 10.9989,9.0464 10.2983,9.2386 10.2645,9.9644 9.8652,9.3574 9.1646,9.5496 9.6184,8.9823"/>
    </g>
  </defs>

  <ellipse cx="200" cy="335" rx="130" ry="14" fill="#000" opacity="0.1"/>

  <ellipse cx="200" cy="318" rx="115" ry="18" fill="#b81f0a"/>
  <rect x="140" y="270" width="120" height="48" fill="#DE2910"/>
  <ellipse cx="200" cy="270" rx="115" ry="16" fill="#DE2910"/>

  <ellipse cx="200" cy="255" rx="95" ry="14" fill="#b81f0a"/>
  <rect x="155" y="215" width="90" height="42" fill="#DE2910"/>
  <ellipse cx="200" cy="215" rx="95" ry="13" fill="#DE2910"/>

  <ellipse cx="200" cy="200" rx="65" ry="11" fill="#b81f0a"/>
  <path d="M148,200 Q148,140 200,110 Q252,140 252,200 Z" fill="#DE2910"/>

  <rect x="194" y="90" width="12" height="24" fill="#FFDE00"/>
  <circle cx="200" cy="88" r="8" fill="#FFDE00"/>

  <g transform="translate(155,235) scale(1.8)">
    <use href="#stars" fill="#FFDE00"/>
  </g>
</svg>
