<svg xmlns="http://www.w3.org/2000/svg" viewBox="0 0 400 400" role="img" aria-labelledby="t">
  <title id="t">Karp Koi w Kształcie Flagi</title>
  <defs>
    <g id="stars">
      <polygon points="5.0000,2.0000 5.6735,4.0729 7.8532,4.0729 6.0898,5.3541 6.7634,7.4271 5.0000,6.1459 3.2366,7.4271 3.9102,5.3541 2.1468,4.0729 4.3265,4.0729"/>
      <polygon points="9.1425,2.5145 9.6195,1.9665 9.2457,1.3435 9.9143,1.6278 10.3913,1.0797 10.3275,1.8035 10.9961,2.0878 10.2881,2.2508 10.2243,2.9745 9.8505,2.3515"/>
      <polygon points="11.0101,4.1414 11.6623,3.8214 11.5596,3.1022 12.0655,3.6237 12.7178,3.3037 12.3781,3.9460 12.8840,4.4675 12.1682,4.3429 11.8286,4.9852 11.7258,4.2660"/>
      <polygon points="11.0385,6.7253 11.7646,6.6992 11.9641,6.0006 12.2133,6.6831 12.9394,6.6571 12.3673,7.1049 12.6164,7.7874 12.0137,7.3817 11.4416,7.8296 11.6412,7.1310"/>
      <polygon points="9.2191,8.3753 9.8990,8.6316 10.3528,8.0643 10.3191,8.7901 10.9989,9.0464 10.2983,9.2386 10.2645,9.9644 9.8652,9.3574 9.1646,9.5496 9.6184,8.9823"/>
    </g>
  </defs>

  <ellipse cx="200" cy="330" rx="150" ry="14" fill="#000" opacity="0.08"/>

  <path d="M300,120 Q340,90 365,95 Q345,120 340,145 Q365,150 370,180 Q345,175 330,195 Q345,215 335,240 Q315,220 300,225 Z"
        fill="#b81f0a"/>

  <path d="M75,210 Q90,140 180,130 Q260,122 300,170 Q330,205 300,250 Q250,290 170,270 Q95,255 75,210 Z" fill="#DE2910"/>

  <path d="M75,210 Q45,195 30,205 Q45,215 45,225 Q30,235 30,250 Q50,240 75,235 Z" fill="#b81f0a"/>

  <g fill="#b81f0a" opacity="0.5">
    <circle cx="140" cy="190" r="10"/>
    <circle cx="170" cy="205" r="10"/>
    <circle cx="200" cy="185" r="10"/>
    <circle cx="160" cy="230" r="10"/>
    <circle cx="195" cy="235" r="10"/>
  </g>

  <circle cx="115" cy="180" r="8" fill="#1c1a17"/>
  <path d="M85,195 Q75,205 78,218" stroke="#b81f0a" stroke-width="5" fill="none" stroke-linecap="round"/>
  <path d="M85,200 Q72,215 80,230" stroke="#b81f0a" stroke-width="5" fill="none" stroke-linecap="round"/>

  <g transform="translate(215,150) scale(1.9)">
    <use href="#stars" fill="#FFDE00"/>
  </g>
</svg>
