<svg xmlns="http://www.w3.org/2000/svg" viewBox="0 0 400 400" role="img" aria-labelledby="t">
  <title id="t">حصان على شكل العلم</title>
  <defs>
    <g id="stars">
      <polygon points="5.0000,2.0000 5.6735,4.0729 7.8532,4.0729 6.0898,5.3541 6.7634,7.4271 5.0000,6.1459 3.2366,7.4271 3.9102,5.3541 2.1468,4.0729 4.3265,4.0729"/>
      <polygon points="9.1425,2.5145 9.6195,1.9665 9.2457,1.3435 9.9143,1.6278 10.3913,1.0797 10.3275,1.8035 10.9961,2.0878 10.2881,2.2508 10.2243,2.9745 9.8505,2.3515"/>
      <polygon points="11.0101,4.1414 11.6623,3.8214 11.5596,3.1022 12.0655,3.6237 12.7178,3.3037 12.3781,3.9460 12.8840,4.4675 12.1682,4.3429 11.8286,4.9852 11.7258,4.2660"/>
      <polygon points="11.0385,6.7253 11.7646,6.6992 11.9641,6.0006 12.2133,6.6831 12.9394,6.6571 12.3673,7.1049 12.6164,7.7874 12.0137,7.3817 11.4416,7.8296 11.6412,7.1310"/>
      <polygon points="9.2191,8.3753 9.8990,8.6316 10.3528,8.0643 10.3191,8.7901 10.9989,9.0464 10.2983,9.2386 10.2645,9.9644 9.8652,9.3574 9.1646,9.5496 9.6184,8.9823"/>
    </g>
  </defs>

  <ellipse cx="200" cy="335" rx="150" ry="13" fill="#000" opacity="0.1"/>

  <path d="M95,255 Q60,250 55,285 Q80,300 105,282 Z" fill="#b81f0a"/>

  <ellipse cx="195" cy="240" rx="105" ry="48" fill="#DE2910"/>

  <path d="M255,215 Q265,155 305,105 Q330,80 340,90 Q320,120 300,150 Q315,140 320,155 Q290,190 268,232 Z" fill="#DE2910"/>

  <g fill="#b81f0a">
    <polygon points="288,138 312,110 300,148"/>
    <polygon points="270,168 296,145 282,182"/>
    <polygon points="258,195 282,175 266,210"/>
  </g>

  <g transform="rotate(-35 325 88)">
    <ellipse cx="325" cy="88" rx="30" ry="20" fill="#DE2910"/>
    <polygon points="308,70 314,44 323,68" fill="#DE2910"/>
    <polygon points="334,68 343,44 349,70" fill="#DE2910"/>
  </g>
  <circle cx="331" cy="78" r="5" fill="#1c1a17"/>
  <ellipse cx="351" cy="76" rx="7" ry="5" fill="#b81f0a"/>

  <g fill="#DE2910">
    <rect x="130" y="270" width="20" height="60" rx="8"/>
    <rect x="165" y="275" width="20" height="65" rx="8"/>
    <rect x="220" y="275" width="20" height="65" rx="8"/>
    <rect x="255" y="270" width="20" height="60" rx="8"/>
  </g>

  <g transform="translate(148,215) scale(1.8)">
    <use href="#stars" fill="#FFDE00"/>
  </g>
</svg>
