<svg xmlns="http://www.w3.org/2000/svg" viewBox="0 0 400 400" role="img" aria-labelledby="t">
  <title id="t">Tutar China mai Siffar Babbar Ganuwar China</title>
  <defs>
    <g id="stars">
      <polygon points="5.0000,2.0000 5.6735,4.0729 7.8532,4.0729 6.0898,5.3541 6.7634,7.4271 5.0000,6.1459 3.2366,7.4271 3.9102,5.3541 2.1468,4.0729 4.3265,4.0729"/>
      <polygon points="9.1425,2.5145 9.6195,1.9665 9.2457,1.3435 9.9143,1.6278 10.3913,1.0797 10.3275,1.8035 10.9961,2.0878 10.2881,2.2508 10.2243,2.9745 9.8505,2.3515"/>
      <polygon points="11.0101,4.1414 11.6623,3.8214 11.5596,3.1022 12.0655,3.6237 12.7178,3.3037 12.3781,3.9460 12.8840,4.4675 12.1682,4.3429 11.8286,4.9852 11.7258,4.2660"/>
      <polygon points="11.0385,6.7253 11.7646,6.6992 11.9641,6.0006 12.2133,6.6831 12.9394,6.6571 12.3673,7.1049 12.6164,7.7874 12.0137,7.3817 11.4416,7.8296 11.6412,7.1310"/>
      <polygon points="9.2191,8.3753 9.8990,8.6316 10.3528,8.0643 10.3191,8.7901 10.9989,9.0464 10.2983,9.2386 10.2645,9.9644 9.8652,9.3574 9.1646,9.5496 9.6184,8.9823"/>
    </g>
  </defs>

  <ellipse cx="200" cy="330" rx="180" ry="14" fill="#000" opacity="0.1"/>

  <path d="M20,290 L70,220 L120,260 L170,180 L215,235 L260,165 L305,225 L350,190 L380,290 Z" fill="#DE2910"/>

  <rect x="60" y="205" width="20" height="30" fill="#b81f0a"/>
  <rect x="55" y="195" width="30" height="12" fill="#b81f0a"/>
  <rect x="245" y="150" width="24" height="34" fill="#b81f0a"/>
  <rect x="240" y="138" width="34" height="14" fill="#b81f0a"/>

  <g fill="#DE2910">
    <rect x="30" y="278" width="16" height="14"/>
    <rect x="55" y="278" width="16" height="14"/>
    <rect x="80" y="278" width="16" height="14"/>
    <rect x="105" y="278" width="16" height="14"/>
    <rect x="130" y="278" width="16" height="14"/>
    <rect x="155" y="278" width="16" height="14"/>
    <rect x="180" y="278" width="16" height="14"/>
    <rect x="205" y="278" width="16" height="14"/>
    <rect x="230" y="278" width="16" height="14"/>
    <rect x="255" y="278" width="16" height="14"/>
    <rect x="280" y="278" width="16" height="14"/>
    <rect x="305" y="278" width="16" height="14"/>
    <rect x="330" y="278" width="16" height="14"/>
    <rect x="355" y="278" width="16" height="14"/>
  </g>

  <g transform="translate(130,225) scale(2.0)">
    <use href="#stars" fill="#FFDE00"/>
  </g>
</svg>
