<svg xmlns="http://www.w3.org/2000/svg" viewBox="0 0 400 400" role="img" aria-labelledby="t">
  <title id="t">Bandeira Chinesa em Forma de Bicicleta</title>
  <defs>
    <g id="stars">
      <polygon points="5.0000,2.0000 5.6735,4.0729 7.8532,4.0729 6.0898,5.3541 6.7634,7.4271 5.0000,6.1459 3.2366,7.4271 3.9102,5.3541 2.1468,4.0729 4.3265,4.0729"/>
      <polygon points="9.1425,2.5145 9.6195,1.9665 9.2457,1.3435 9.9143,1.6278 10.3913,1.0797 10.3275,1.8035 10.9961,2.0878 10.2881,2.2508 10.2243,2.9745 9.8505,2.3515"/>
      <polygon points="11.0101,4.1414 11.6623,3.8214 11.5596,3.1022 12.0655,3.6237 12.7178,3.3037 12.3781,3.9460 12.8840,4.4675 12.1682,4.3429 11.8286,4.9852 11.7258,4.2660"/>
      <polygon points="11.0385,6.7253 11.7646,6.6992 11.9641,6.0006 12.2133,6.6831 12.9394,6.6571 12.3673,7.1049 12.6164,7.7874 12.0137,7.3817 11.4416,7.8296 11.6412,7.1310"/>
      <polygon points="9.2191,8.3753 9.8990,8.6316 10.3528,8.0643 10.3191,8.7901 10.9989,9.0464 10.2983,9.2386 10.2645,9.9644 9.8652,9.3574 9.1646,9.5496 9.6184,8.9823"/>
    </g>
  </defs>

  <ellipse cx="200" cy="322" rx="150" ry="13" fill="#000" opacity="0.1"/>

  <circle cx="115" cy="260" r="62" fill="#DE2910"/>
  <circle cx="115" cy="260" r="62" fill="none" stroke="#b81f0a" stroke-width="6"/>
  <circle cx="285" cy="260" r="62" fill="none" stroke="#DE2910" stroke-width="14"/>

  <g stroke="#DE2910" stroke-width="9" stroke-linecap="round" fill="none">
    <path d="M115,260 L190,150 L285,260"/>
    <path d="M190,150 L215,150"/>
    <path d="M215,150 L285,260"/>
    <path d="M115,260 L215,150"/>
    <path d="M215,150 L230,115"/>
    <path d="M215,150 L230,190 L285,190"/>
  </g>
  <path d="M215,110 L245,110" stroke="#DE2910" stroke-width="9" stroke-linecap="round"/>
  <path d="M230,190 L215,215 M230,190 L250,210" stroke="#DE2910" stroke-width="7" stroke-linecap="round"/>

  <g transform="translate(93,238) scale(1.7)">
    <use href="#stars" fill="#FFDE00"/>
  </g>
</svg>
