<svg xmlns="http://www.w3.org/2000/svg" viewBox="0 0 400 400" role="img" aria-labelledby="t">
  <title id="t">Kinesisk Flagga i Form av en Tiger</title>
  <defs>
    <g id="stars">
      <polygon points="5.0000,2.0000 5.6735,4.0729 7.8532,4.0729 6.0898,5.3541 6.7634,7.4271 5.0000,6.1459 3.2366,7.4271 3.9102,5.3541 2.1468,4.0729 4.3265,4.0729"/>
      <polygon points="9.1425,2.5145 9.6195,1.9665 9.2457,1.3435 9.9143,1.6278 10.3913,1.0797 10.3275,1.8035 10.9961,2.0878 10.2881,2.2508 10.2243,2.9745 9.8505,2.3515"/>
      <polygon points="11.0101,4.1414 11.6623,3.8214 11.5596,3.1022 12.0655,3.6237 12.7178,3.3037 12.3781,3.9460 12.8840,4.4675 12.1682,4.3429 11.8286,4.9852 11.7258,4.2660"/>
      <polygon points="11.0385,6.7253 11.7646,6.6992 11.9641,6.0006 12.2133,6.6831 12.9394,6.6571 12.3673,7.1049 12.6164,7.7874 12.0137,7.3817 11.4416,7.8296 11.6412,7.1310"/>
      <polygon points="9.2191,8.3753 9.8990,8.6316 10.3528,8.0643 10.3191,8.7901 10.9989,9.0464 10.2983,9.2386 10.2645,9.9644 9.8652,9.3574 9.1646,9.5496 9.6184,8.9823"/>
    </g>
  </defs>

  <ellipse cx="200" cy="330" rx="150" ry="13" fill="#000" opacity="0.1"/>

  <path d="M290,230 Q330,215 335,180 Q345,190 335,215 Q355,225 350,245 Q325,240 310,255 Z" fill="#b81f0a"/>

  <ellipse cx="205" cy="255" rx="105" ry="55" fill="#DE2910"/>

  <g fill="#b81f0a">
    <rect x="150" y="215" width="8" height="55" transform="rotate(20 150 215)"/>
    <rect x="185" y="205" width="8" height="60" transform="rotate(8 185 205)"/>
    <rect x="225" y="205" width="8" height="60" transform="rotate(-8 225 205)"/>
    <rect x="262" y="212" width="8" height="55" transform="rotate(-18 262 212)"/>
  </g>

  <g fill="#DE2910">
    <rect x="130" y="290" width="20" height="45" rx="8"/>
    <rect x="175" y="295" width="20" height="45" rx="8"/>
    <rect x="220" y="295" width="20" height="45" rx="8"/>
    <rect x="262" y="290" width="20" height="45" rx="8"/>
  </g>

  <circle cx="115" cy="215" r="48" fill="#DE2910"/>
  <polygon points="82,182 92,150 105,180" fill="#DE2910"/>
  <polygon points="140,182 150,150 128,180" fill="#DE2910"/>
  <path d="M75,215 Q60,222 58,235 Q75,232 85,222 Z" fill="#DE2910"/>
  <g stroke="#b81f0a" stroke-width="3">
    <line x1="90" y1="205" x2="70" y2="200"/>
    <line x1="90" y1="215" x2="68" y2="215"/>
    <line x1="140" y1="205" x2="160" y2="200"/>
    <line x1="140" y1="215" x2="162" y2="215"/>
  </g>
  <circle cx="96" cy="205" r="5" fill="#1c1a17"/>
  <circle cx="132" cy="205" r="5" fill="#1c1a17"/>

  <g transform="translate(200,230) scale(1.8)">
    <use href="#stars" fill="#FFDE00"/>
  </g>
</svg>
