<svg xmlns="http://www.w3.org/2000/svg" viewBox="0 0 400 400" role="img" aria-labelledby="t">
  <title id="t">Chinesische Flagge als Hahn</title>
  <defs>
    <g id="stars">
      <polygon points="5.0000,2.0000 5.6735,4.0729 7.8532,4.0729 6.0898,5.3541 6.7634,7.4271 5.0000,6.1459 3.2366,7.4271 3.9102,5.3541 2.1468,4.0729 4.3265,4.0729"/>
      <polygon points="9.1425,2.5145 9.6195,1.9665 9.2457,1.3435 9.9143,1.6278 10.3913,1.0797 10.3275,1.8035 10.9961,2.0878 10.2881,2.2508 10.2243,2.9745 9.8505,2.3515"/>
      <polygon points="11.0101,4.1414 11.6623,3.8214 11.5596,3.1022 12.0655,3.6237 12.7178,3.3037 12.3781,3.9460 12.8840,4.4675 12.1682,4.3429 11.8286,4.9852 11.7258,4.2660"/>
      <polygon points="11.0385,6.7253 11.7646,6.6992 11.9641,6.0006 12.2133,6.6831 12.9394,6.6571 12.3673,7.1049 12.6164,7.7874 12.0137,7.3817 11.4416,7.8296 11.6412,7.1310"/>
      <polygon points="9.2191,8.3753 9.8990,8.6316 10.3528,8.0643 10.3191,8.7901 10.9989,9.0464 10.2983,9.2386 10.2645,9.9644 9.8652,9.3574 9.1646,9.5496 9.6184,8.9823"/>
    </g>
  </defs>

  <ellipse cx="220" cy="345" rx="120" ry="13" fill="#000" opacity="0.1"/>

  <path d="M230,290 Q170,270 175,200 Q205,180 240,195 Q290,150 320,90 Q300,160 260,205 Q290,215 300,260 Q280,300 230,290 Z"
        fill="#DE2910"/>
  <g fill="#b81f0a">
    <path d="M300,110 Q330,95 350,60 Q335,100 310,125 Z"/>
    <path d="M290,140 Q325,135 350,110 Q325,155 295,160 Z"/>
    <path d="M270,170 Q305,175 330,155 Q300,195 268,190 Z"/>
  </g>

  <circle cx="175" cy="170" r="34" fill="#DE2910"/>
  <path d="M165,140 Q175,110 190,138 Q182,130 172,140 Q188,132 195,148 Q178,140 165,140 Z" fill="#FFDE00"/>
  <polygon points="145,178 118,185 148,192" fill="#FFDE00"/>
  <ellipse cx="160" cy="192" rx="8" ry="12" fill="#FFDE00"/>
  <circle cx="182" cy="165" r="5" fill="#1c1a17"/>

  <g fill="#DE2910">
    <rect x="195" y="275" width="16" height="45" rx="6"/>
    <rect x="230" y="278" width="16" height="45" rx="6"/>
  </g>
  <path d="M195,320 L180,332 M195,320 L205,334 M230,323 L218,336 M246,323 L256,334" stroke="#FFDE00" stroke-width="5" stroke-linecap="round"/>

  <g transform="translate(198,205) scale(1.6)">
    <use href="#stars" fill="#FFDE00"/>
  </g>
</svg>
