<svg xmlns="http://www.w3.org/2000/svg" viewBox="0 0 400 400" role="img" aria-labelledby="t">
  <title id="t">紫禁城の形をした中国国旗</title>
  <defs>
    <g id="stars">
      <polygon points="5.0000,2.0000 5.6735,4.0729 7.8532,4.0729 6.0898,5.3541 6.7634,7.4271 5.0000,6.1459 3.2366,7.4271 3.9102,5.3541 2.1468,4.0729 4.3265,4.0729"/>
      <polygon points="9.1425,2.5145 9.6195,1.9665 9.2457,1.3435 9.9143,1.6278 10.3913,1.0797 10.3275,1.8035 10.9961,2.0878 10.2881,2.2508 10.2243,2.9745 9.8505,2.3515"/>
      <polygon points="11.0101,4.1414 11.6623,3.8214 11.5596,3.1022 12.0655,3.6237 12.7178,3.3037 12.3781,3.9460 12.8840,4.4675 12.1682,4.3429 11.8286,4.9852 11.7258,4.2660"/>
      <polygon points="11.0385,6.7253 11.7646,6.6992 11.9641,6.0006 12.2133,6.6831 12.9394,6.6571 12.3673,7.1049 12.6164,7.7874 12.0137,7.3817 11.4416,7.8296 11.6412,7.1310"/>
      <polygon points="9.2191,8.3753 9.8990,8.6316 10.3528,8.0643 10.3191,8.7901 10.9989,9.0464 10.2983,9.2386 10.2645,9.9644 9.8652,9.3574 9.1646,9.5496 9.6184,8.9823"/>
    </g>
  </defs>

  <ellipse cx="200" cy="330" rx="170" ry="14" fill="#000" opacity="0.1"/>

  <rect x="70" y="290" width="260" height="24" fill="#b81f0a"/>
  <rect x="90" y="220" width="220" height="70" fill="#DE2910"/>
  <g fill="#b81f0a">
    <rect x="110" y="230" width="12" height="60"/>
    <rect x="150" y="230" width="12" height="60"/>
    <rect x="238" y="230" width="12" height="60"/>
    <rect x="278" y="230" width="12" height="60"/>
  </g>
  <path d="M170,290 L170,240 L230,240 L230,290 Z" fill="#1c1a17" opacity="0.75"/>

  <path d="M60,220 Q60,195 100,192 L300,192 Q340,195 340,220 Q300,205 260,212 Q230,196 200,212 Q170,196 140,212 Q100,205 60,220 Z"
        fill="#b81f0a"/>
  <path d="M75,195 Q75,175 105,172 L295,172 Q325,175 325,195 Q295,183 260,188 Q230,175 200,188 Q170,175 140,188 Q105,183 75,195 Z"
        fill="#DE2910"/>
  <rect x="192" y="150" width="16" height="24" fill="#FFDE00"/>
  <circle cx="200" cy="148" r="8" fill="#FFDE00"/>

  <g transform="translate(140,232) scale(1.9)">
    <use href="#stars" fill="#FFDE00"/>
  </g>
</svg>
